<svg width="1200" height="760" viewBox="0 0 1200 760" fill="none" xmlns="http://www.w3.org/2000/svg">
  <defs>
    <style>
      .ui { font-family: 'Segoe UI', Arial, sans-serif; }
      .title { font-size: 22px; font-weight: 600; fill: #ffffff; }
      .btn { font-size: 18px; font-weight: 700; fill: #ffffff; }
      .head { font-size: 15px; font-weight: 700; fill: #4f5d67; }
      .cell { font-size: 14px; font-weight: 600; fill: #1f2a33; }
      .pill { font-size: 12px; font-weight: 800; fill: #ffffff; }
    </style>
    <g id="closeIcon" stroke="#ffffff" stroke-width="2.6" stroke-linecap="round">
      <path d="M0 0L12 12"/>
      <path d="M12 0L0 12"/>
    </g>
    <g id="pencilIcon" fill="none" stroke="#cf2f8c" stroke-width="1.8" stroke-linecap="round" stroke-linejoin="round">
      <path d="M4 14L2.2 17.8L6 16L14.4 7.6L12.4 5.6L4 14Z"/>
      <path d="M11.4 4.6L13.4 6.6"/>
      <path d="M3.2 14.8L5.2 16.8"/>
    </g>
  </defs>

  <rect width="1200" height="760" rx="34" fill="#E8EDF3"/>
  <rect x="56" y="44" width="1088" height="672" rx="28" fill="#FFFFFF"/>
  <rect x="56" y="44" width="1088" height="56" rx="28" fill="#0A0A0A"/>
  <rect x="56" y="100" width="1088" height="616" fill="#FFFFFF"/>

  <text class="ui title" x="88" y="72" dominant-baseline="middle">Scheme 1. New Case (42)</text>
  <use href="#closeIcon" x="1108" y="64"/>

  <rect x="88" y="128" width="116" height="40" rx="8" fill="#CF2F8C"/>
  <rect x="216" y="128" width="154" height="40" rx="8" fill="#CF2F8C"/>
  <text class="ui btn" x="146" y="148" text-anchor="middle" dominant-baseline="middle">Add Stage</text>
  <text class="ui btn" x="293" y="148" text-anchor="middle" dominant-baseline="middle">Create New Stage</text>

  <rect x="88" y="192" width="1024" height="472" fill="#FFFFFF" stroke="#DFE5EB"/>
  <rect x="88" y="192" width="1024" height="34" fill="#F6F8FA"/>

  <g stroke="#DFE5EB">
    <line x1="526" y1="192" x2="526" y2="664"/>
    <line x1="634" y1="192" x2="634" y2="664"/>
    <line x1="748" y1="192" x2="748" y2="664"/>
    <line x1="844" y1="192" x2="844" y2="664"/>
    <line x1="1008" y1="192" x2="1008" y2="664"/>
    <line x1="1080" y1="192" x2="1080" y2="664"/>
    <line x1="88" y1="226.5" x2="1112" y2="226.5"/>
    <line x1="88" y1="264.5" x2="1112" y2="264.5"/>
    <line x1="88" y1="302.5" x2="1112" y2="302.5"/>
    <line x1="88" y1="340.5" x2="1112" y2="340.5"/>
    <line x1="88" y1="378.5" x2="1112" y2="378.5"/>
    <line x1="88" y1="416.5" x2="1112" y2="416.5"/>
    <line x1="88" y1="454.5" x2="1112" y2="454.5"/>
    <line x1="88" y1="492.5" x2="1112" y2="492.5"/>
    <line x1="88" y1="530.5" x2="1112" y2="530.5"/>
    <line x1="88" y1="568.5" x2="1112" y2="568.5"/>
    <line x1="88" y1="606.5" x2="1112" y2="606.5"/>
    <line x1="88" y1="644.5" x2="1112" y2="644.5"/>
  </g>

  <text class="ui head" x="124" y="209" dominant-baseline="middle">Stage</text>
  <text class="ui head" x="580" y="209" dominant-baseline="middle" text-anchor="middle">Alerts</text>
  <text class="ui head" x="691" y="209" dominant-baseline="middle" text-anchor="middle">Content</text>
  <text class="ui head" x="796" y="209" dominant-baseline="middle" text-anchor="middle">Fees</text>
  <text class="ui head" x="926" y="209" dominant-baseline="middle" text-anchor="middle">Decisions</text>
  <text class="ui head" x="1060" y="209" dominant-baseline="middle" text-anchor="middle">Edit</text>

  <g class="ui cell">
    <text x="108" y="246" dominant-baseline="middle">New Debt Existing File Check</text>
    <text x="108" y="284" dominant-baseline="middle">Legal Action on Existing File Check</text>
    <text x="108" y="322" dominant-baseline="middle">Add Invoice Details to Existing File</text>
    <text x="108" y="360" dominant-baseline="middle">Check Name/Address/Invoice Details on New File</text>
    <text x="108" y="398" dominant-baseline="middle">Contact Client Department</text>
    <text x="108" y="436" dominant-baseline="middle">Issue LBA</text>
    <text x="108" y="474" dominant-baseline="middle">New Case Review</text>
    <text x="108" y="512" dominant-baseline="middle">Arrangement Check</text>
    <text x="108" y="550" dominant-baseline="middle">Send Query to Client</text>
    <text x="108" y="588" dominant-baseline="middle">New Case Query Review</text>
    <text x="108" y="626" dominant-baseline="middle">Write Off and Close File</text>
  </g>

  <g>
    <rect x="558" y="235" width="44" height="22" rx="11" fill="#0B0B0B"/>
    <rect x="558" y="273" width="44" height="22" rx="11" fill="#0B0B0B"/>
    <rect x="558" y="311" width="44" height="22" rx="11" fill="#0B0B0B"/>
    <rect x="558" y="349" width="44" height="22" rx="11" fill="#0B0B0B"/>
    <rect x="558" y="387" width="44" height="22" rx="11" fill="#0B0B0B"/>
    <rect x="548" y="425" width="64" height="22" rx="11" fill="#0B0B0B"/>
    <rect x="558" y="463" width="44" height="22" rx="11" fill="#0B0B0B"/>
    <rect x="558" y="501" width="44" height="22" rx="11" fill="#0B0B0B"/>
    <rect x="558" y="539" width="44" height="22" rx="11" fill="#0B0B0B"/>
    <rect x="558" y="577" width="44" height="22" rx="11" fill="#0B0B0B"/>
    <rect x="558" y="615" width="44" height="22" rx="11" fill="#0B0B0B"/>
    <text class="ui pill" x="580" y="246" text-anchor="middle" dominant-baseline="middle">1</text>
    <text class="ui pill" x="580" y="284" text-anchor="middle" dominant-baseline="middle">1</text>
    <text class="ui pill" x="580" y="322" text-anchor="middle" dominant-baseline="middle">2</text>
    <text class="ui pill" x="580" y="360" text-anchor="middle" dominant-baseline="middle">1</text>
    <text class="ui pill" x="580" y="398" text-anchor="middle" dominant-baseline="middle">2</text>
    <text class="ui pill" x="580" y="436" text-anchor="middle" dominant-baseline="middle">20 DAYS</text>
    <text class="ui pill" x="580" y="474" text-anchor="middle" dominant-baseline="middle">1</text>
    <text class="ui pill" x="580" y="512" text-anchor="middle" dominant-baseline="middle">1</text>
    <text class="ui pill" x="580" y="550" text-anchor="middle" dominant-baseline="middle">1</text>
    <text class="ui pill" x="580" y="588" text-anchor="middle" dominant-baseline="middle">1</text>
    <text class="ui pill" x="580" y="626" text-anchor="middle" dominant-baseline="middle">2</text>
  </g>

  <g class="ui cell" fill="#6B7680">
    <text x="691" y="246" text-anchor="middle" dominant-baseline="middle">-</text>
    <text x="691" y="284" text-anchor="middle" dominant-baseline="middle">-</text>
    <text x="691" y="322" text-anchor="middle" dominant-baseline="middle">1</text>
    <text x="691" y="360" text-anchor="middle" dominant-baseline="middle">-</text>
    <text x="691" y="398" text-anchor="middle" dominant-baseline="middle">-</text>
    <text x="691" y="436" text-anchor="middle" dominant-baseline="middle">-</text>
    <text x="691" y="474" text-anchor="middle" dominant-baseline="middle">-</text>
    <text x="691" y="512" text-anchor="middle" dominant-baseline="middle">-</text>
    <text x="691" y="550" text-anchor="middle" dominant-baseline="middle">-</text>
    <text x="691" y="588" text-anchor="middle" dominant-baseline="middle">-</text>
    <text x="691" y="626" text-anchor="middle" dominant-baseline="middle">1</text>
  </g>

  <g class="ui btn" fill="#CF2F8C">
    <text x="796" y="246" text-anchor="middle" dominant-baseline="middle">+</text>
    <text x="796" y="284" text-anchor="middle" dominant-baseline="middle">+</text>
    <text x="796" y="322" text-anchor="middle" dominant-baseline="middle">+</text>
    <text x="796" y="360" text-anchor="middle" dominant-baseline="middle">+</text>
    <text x="796" y="398" text-anchor="middle" dominant-baseline="middle">+</text>
    <text x="796" y="436" text-anchor="middle" dominant-baseline="middle">+</text>
    <text x="796" y="474" text-anchor="middle" dominant-baseline="middle">+</text>
    <text x="796" y="512" text-anchor="middle" dominant-baseline="middle">+</text>
    <text x="796" y="550" text-anchor="middle" dominant-baseline="middle">+</text>
    <text x="796" y="588" text-anchor="middle" dominant-baseline="middle">+</text>
    <text x="796" y="626" text-anchor="middle" dominant-baseline="middle">+</text>
  </g>

  <g>
    <rect x="874" y="235" width="104" height="22" rx="11" fill="#0B0B0B"/>
    <rect x="874" y="273" width="104" height="22" rx="11" fill="#0B0B0B"/>
    <rect x="874" y="311" width="104" height="22" rx="11" fill="#0B0B0B"/>
    <rect x="874" y="349" width="104" height="22" rx="11" fill="#0B0B0B"/>
    <rect x="874" y="463" width="104" height="22" rx="11" fill="#0B0B0B"/>
    <rect x="874" y="501" width="104" height="22" rx="11" fill="#0B0B0B"/>
    <rect x="874" y="577" width="104" height="22" rx="11" fill="#0B0B0B"/>
    <rect x="874" y="615" width="104" height="22" rx="11" fill="#0B0B0B"/>
    <text class="ui pill" x="926" y="246" text-anchor="middle" dominant-baseline="middle">2 DECISION</text>
    <text class="ui pill" x="926" y="284" text-anchor="middle" dominant-baseline="middle">2 DECISION</text>
    <text class="ui pill" x="926" y="322" text-anchor="middle" dominant-baseline="middle">1 DECISION</text>
    <text class="ui pill" x="926" y="360" text-anchor="middle" dominant-baseline="middle">2 DECISION</text>
    <text class="ui pill" x="926" y="474" text-anchor="middle" dominant-baseline="middle">2 DECISION</text>
    <text class="ui pill" x="926" y="512" text-anchor="middle" dominant-baseline="middle">2 DECISION</text>
    <text class="ui pill" x="926" y="588" text-anchor="middle" dominant-baseline="middle">3 DECISION</text>
    <text class="ui pill" x="926" y="626" text-anchor="middle" dominant-baseline="middle">1 DECISION</text>
  </g>

  <use href="#pencilIcon" x="1052" y="235"/>
  <use href="#pencilIcon" x="1052" y="273"/>
  <use href="#pencilIcon" x="1052" y="311"/>
  <use href="#pencilIcon" x="1052" y="349"/>
  <use href="#pencilIcon" x="1052" y="387"/>
  <use href="#pencilIcon" x="1052" y="425"/>
  <use href="#pencilIcon" x="1052" y="463"/>
  <use href="#pencilIcon" x="1052" y="501"/>
  <use href="#pencilIcon" x="1052" y="539"/>
  <use href="#pencilIcon" x="1052" y="577"/>
  <use href="#pencilIcon" x="1052" y="615"/>
</svg>
