<svg width="1200" height="760" viewBox="0 0 1200 760" fill="none" xmlns="http://www.w3.org/2000/svg">
  <defs>
    <style>
      .ui { font-family: 'Segoe UI', Arial, sans-serif; }
      .title { font-size: 24px; font-weight: 700; fill: #ffffff; }
      .btn { font-size: 18px; font-weight: 700; fill: #ffffff; }
      .head { font-size: 15px; font-weight: 700; fill: #4f5d67; }
      .cell { font-size: 14px; font-weight: 600; fill: #1f2a33; }
      .pill { font-size: 12px; font-weight: 800; fill: #ffffff; }
    </style>
    <g id="closeIcon" stroke="#ffffff" stroke-width="2.6" stroke-linecap="round">
      <path d="M0 0L12 12"/>
      <path d="M12 0L0 12"/>
    </g>
    <g id="editIcon" fill="none" stroke="#cf2f8c" stroke-width="1.9" stroke-linecap="round" stroke-linejoin="round">
      <path d="M3 12.6L2.1 16.2L5.7 15.3L14.8 6.2L12.1 3.5L3 12.6Z"/>
      <path d="M10.9 4.7L13.6 7.4"/>
    </g>
  </defs>

  <rect width="1200" height="760" rx="34" fill="#E8EDF3"/>
  <rect x="56" y="44" width="1088" height="672" rx="28" fill="#FFFFFF"/>
  <rect x="56" y="44" width="1088" height="56" rx="28" fill="#0A0A0A"/>
  <rect x="56" y="74" width="1088" height="642" fill="#FFFFFF"/>

  <text class="ui title" x="88" y="74" dominant-baseline="middle">Scheme 1. New Case (42)</text>
  <use href="#closeIcon" x="1108" y="64"/>

  <rect x="88" y="118" width="116" height="40" rx="8" fill="#CF2F8C"/>
  <rect x="216" y="118" width="154" height="40" rx="8" fill="#CF2F8C"/>
  <text class="ui btn" x="146" y="138" text-anchor="middle" dominant-baseline="middle">Add Stage</text>
  <text class="ui btn" x="293" y="138" text-anchor="middle" dominant-baseline="middle">Create New Stage</text>

  <rect x="88" y="182" width="1024" height="472" fill="#FFFFFF" stroke="#DFE5EB"/>
  <rect x="88" y="182" width="1024" height="34" fill="#F6F8FA"/>

  <g stroke="#DFE5EB">
    <line x1="526" y1="182" x2="526" y2="654"/>
    <line x1="634" y1="182" x2="634" y2="654"/>
    <line x1="748" y1="182" x2="748" y2="654"/>
    <line x1="844" y1="182" x2="844" y2="654"/>
    <line x1="1008" y1="182" x2="1008" y2="654"/>
    <line x1="1080" y1="182" x2="1080" y2="654"/>
    <line x1="88" y1="216.5" x2="1112" y2="216.5"/>
    <line x1="88" y1="254.5" x2="1112" y2="254.5"/>
    <line x1="88" y1="292.5" x2="1112" y2="292.5"/>
    <line x1="88" y1="330.5" x2="1112" y2="330.5"/>
    <line x1="88" y1="368.5" x2="1112" y2="368.5"/>
    <line x1="88" y1="406.5" x2="1112" y2="406.5"/>
    <line x1="88" y1="444.5" x2="1112" y2="444.5"/>
    <line x1="88" y1="482.5" x2="1112" y2="482.5"/>
    <line x1="88" y1="520.5" x2="1112" y2="520.5"/>
    <line x1="88" y1="558.5" x2="1112" y2="558.5"/>
    <line x1="88" y1="596.5" x2="1112" y2="596.5"/>
    <line x1="88" y1="634.5" x2="1112" y2="634.5"/>
  </g>

  <text class="ui head" x="124" y="199" dominant-baseline="middle">Stage</text>
  <text class="ui head" x="580" y="199" dominant-baseline="middle" text-anchor="middle">Alerts</text>
  <text class="ui head" x="691" y="199" dominant-baseline="middle" text-anchor="middle">Content</text>
  <text class="ui head" x="796" y="199" dominant-baseline="middle" text-anchor="middle">Fees</text>
  <text class="ui head" x="926" y="199" dominant-baseline="middle" text-anchor="middle">Decisions</text>
  <text class="ui head" x="1060" y="199" dominant-baseline="middle" text-anchor="middle">Edit</text>

  <g class="ui cell">
    <text x="108" y="236" dominant-baseline="middle">New Debt Existing File Check</text>
    <text x="108" y="274" dominant-baseline="middle">Legal Action on Existing File Check</text>
    <text x="108" y="312" dominant-baseline="middle">Add Invoice Details to Existing File</text>
    <text x="108" y="350" dominant-baseline="middle">Check Name/Address/Invoice Details on New File</text>
    <text x="108" y="388" dominant-baseline="middle">Contact Client Department</text>
    <text x="108" y="426" dominant-baseline="middle">Issue LBA</text>
    <text x="108" y="464" dominant-baseline="middle">New Case Review</text>
    <text x="108" y="502" dominant-baseline="middle">Arrangement Check</text>
    <text x="108" y="540" dominant-baseline="middle">Send Query to Client</text>
    <text x="108" y="578" dominant-baseline="middle">New Case Query Review</text>
    <text x="108" y="616" dominant-baseline="middle">Write Off and Close File</text>
  </g>

  <g>
    <rect x="558" y="225" width="44" height="22" rx="11" fill="#0B0B0B"/>
    <rect x="558" y="263" width="44" height="22" rx="11" fill="#0B0B0B"/>
    <rect x="558" y="301" width="44" height="22" rx="11" fill="#0B0B0B"/>
    <rect x="558" y="339" width="44" height="22" rx="11" fill="#0B0B0B"/>
    <rect x="558" y="377" width="44" height="22" rx="11" fill="#0B0B0B"/>
    <rect x="548" y="415" width="64" height="22" rx="11" fill="#0B0B0B"/>
    <rect x="558" y="453" width="44" height="22" rx="11" fill="#0B0B0B"/>
    <rect x="558" y="491" width="44" height="22" rx="11" fill="#0B0B0B"/>
    <rect x="558" y="529" width="44" height="22" rx="11" fill="#0B0B0B"/>
    <rect x="558" y="567" width="44" height="22" rx="11" fill="#0B0B0B"/>
    <rect x="558" y="605" width="44" height="22" rx="11" fill="#0B0B0B"/>
    <text class="ui pill" x="580" y="236" text-anchor="middle" dominant-baseline="middle">1</text>
    <text class="ui pill" x="580" y="274" text-anchor="middle" dominant-baseline="middle">1</text>
    <text class="ui pill" x="580" y="312" text-anchor="middle" dominant-baseline="middle">2</text>
    <text class="ui pill" x="580" y="350" text-anchor="middle" dominant-baseline="middle">1</text>
    <text class="ui pill" x="580" y="388" text-anchor="middle" dominant-baseline="middle">2</text>
    <text class="ui pill" x="580" y="426" text-anchor="middle" dominant-baseline="middle">20 DAYS</text>
    <text class="ui pill" x="580" y="464" text-anchor="middle" dominant-baseline="middle">1</text>
    <text class="ui pill" x="580" y="502" text-anchor="middle" dominant-baseline="middle">1</text>
    <text class="ui pill" x="580" y="540" text-anchor="middle" dominant-baseline="middle">1</text>
    <text class="ui pill" x="580" y="578" text-anchor="middle" dominant-baseline="middle">1</text>
    <text class="ui pill" x="580" y="616" text-anchor="middle" dominant-baseline="middle">2</text>
  </g>

  <g class="ui cell" fill="#6B7680">
    <text x="691" y="236" text-anchor="middle" dominant-baseline="middle">-</text>
    <text x="691" y="274" text-anchor="middle" dominant-baseline="middle">-</text>
    <text x="691" y="312" text-anchor="middle" dominant-baseline="middle">1</text>
    <text x="691" y="350" text-anchor="middle" dominant-baseline="middle">-</text>
    <text x="691" y="388" text-anchor="middle" dominant-baseline="middle">-</text>
    <text x="691" y="426" text-anchor="middle" dominant-baseline="middle">-</text>
    <text x="691" y="464" text-anchor="middle" dominant-baseline="middle">-</text>
    <text x="691" y="502" text-anchor="middle" dominant-baseline="middle">-</text>
    <text x="691" y="540" text-anchor="middle" dominant-baseline="middle">-</text>
    <text x="691" y="578" text-anchor="middle" dominant-baseline="middle">-</text>
    <text x="691" y="616" text-anchor="middle" dominant-baseline="middle">1</text>
  </g>

  <g class="ui btn" fill="#CF2F8C">
    <text x="796" y="236" text-anchor="middle" dominant-baseline="middle">+</text>
    <text x="796" y="274" text-anchor="middle" dominant-baseline="middle">+</text>
    <text x="796" y="312" text-anchor="middle" dominant-baseline="middle">+</text>
    <text x="796" y="350" text-anchor="middle" dominant-baseline="middle">+</text>
    <text x="796" y="388" text-anchor="middle" dominant-baseline="middle">+</text>
    <text x="796" y="426" text-anchor="middle" dominant-baseline="middle">+</text>
    <text x="796" y="464" text-anchor="middle" dominant-baseline="middle">+</text>
    <text x="796" y="502" text-anchor="middle" dominant-baseline="middle">+</text>
    <text x="796" y="540" text-anchor="middle" dominant-baseline="middle">+</text>
    <text x="796" y="578" text-anchor="middle" dominant-baseline="middle">+</text>
    <text x="796" y="616" text-anchor="middle" dominant-baseline="middle">+</text>
  </g>

  <g>
    <rect x="874" y="225" width="104" height="22" rx="11" fill="#0B0B0B"/>
    <rect x="874" y="263" width="104" height="22" rx="11" fill="#0B0B0B"/>
    <rect x="874" y="301" width="104" height="22" rx="11" fill="#0B0B0B"/>
    <rect x="874" y="339" width="104" height="22" rx="11" fill="#0B0B0B"/>
    <rect x="874" y="453" width="104" height="22" rx="11" fill="#0B0B0B"/>
    <rect x="874" y="491" width="104" height="22" rx="11" fill="#0B0B0B"/>
    <rect x="874" y="567" width="104" height="22" rx="11" fill="#0B0B0B"/>
    <rect x="874" y="605" width="104" height="22" rx="11" fill="#0B0B0B"/>
    <text class="ui pill" x="926" y="236" text-anchor="middle" dominant-baseline="middle">2 DECISION</text>
    <text class="ui pill" x="926" y="274" text-anchor="middle" dominant-baseline="middle">2 DECISION</text>
    <text class="ui pill" x="926" y="312" text-anchor="middle" dominant-baseline="middle">1 DECISION</text>
    <text class="ui pill" x="926" y="350" text-anchor="middle" dominant-baseline="middle">2 DECISION</text>
    <text class="ui pill" x="926" y="464" text-anchor="middle" dominant-baseline="middle">2 DECISION</text>
    <text class="ui pill" x="926" y="502" text-anchor="middle" dominant-baseline="middle">2 DECISION</text>
    <text class="ui pill" x="926" y="578" text-anchor="middle" dominant-baseline="middle">3 DECISION</text>
    <text class="ui pill" x="926" y="616" text-anchor="middle" dominant-baseline="middle">1 DECISION</text>
  </g>

  <use href="#editIcon" x="1053" y="229"/>
  <use href="#editIcon" x="1053" y="267"/>
  <use href="#editIcon" x="1053" y="305"/>
  <use href="#editIcon" x="1053" y="343"/>
  <use href="#editIcon" x="1053" y="381"/>
  <use href="#editIcon" x="1053" y="419"/>
  <use href="#editIcon" x="1053" y="457"/>
  <use href="#editIcon" x="1053" y="495"/>
  <use href="#editIcon" x="1053" y="533"/>
  <use href="#editIcon" x="1053" y="571"/>
  <use href="#editIcon" x="1053" y="609"/>
</svg>
