<svg width="1200" height="760" viewBox="0 0 1200 760" fill="none" xmlns="http://www.w3.org/2000/svg">
  <defs>
    <style>
      .ui { font-family: 'Segoe UI', Arial, sans-serif; }
      .title { font-size: 30px; font-weight: 800; fill: #11171d; }
      .head { font-size: 18px; font-weight: 700; fill: #55636d; }
      .cell { font-size: 18px; font-weight: 600; fill: #1f2a33; }
      .big { font-size: 60px; font-weight: 800; fill: #11171d; }
    </style>
  </defs>

  <rect width="1200" height="760" rx="34" fill="#E8EDF3"/>
  <rect x="54" y="44" width="1092" height="672" rx="30" fill="#FCFDFE"/>

  <rect x="88" y="84" width="1024" height="380" rx="22" fill="#FFFFFF" stroke="#D9E0E6" stroke-width="2"/>
  <text class="ui title" x="124" y="126" dominant-baseline="middle">Communication Weekly Data</text>
  <path d="M1068 136L1080 124L1092 136" stroke="#CF2F8C" stroke-width="4.5" stroke-linecap="round" stroke-linejoin="round"/>

  <rect x="120" y="174" width="960" height="176" fill="#FFFFFF" stroke="#E0E6EB"/>
  <rect x="120" y="174" width="960" height="42" fill="#F5F7F9"/>
  <g stroke="#E0E6EB">
    <line x1="346" y1="174" x2="346" y2="350"/>
    <line x1="490" y1="174" x2="490" y2="350"/>
    <line x1="634" y1="174" x2="634" y2="350"/>
    <line x1="778" y1="174" x2="778" y2="350"/>
    <line x1="922" y1="174" x2="922" y2="350"/>
    <line x1="120" y1="216.5" x2="1080" y2="216.5"/>
    <line x1="120" y1="259.5" x2="1080" y2="259.5"/>
    <line x1="120" y1="302.5" x2="1080" y2="302.5"/>
  </g>

  <g class="ui head">
    <text x="146" y="195" dominant-baseline="middle">Week No.</text>
    <text x="382" y="195" dominant-baseline="middle">Week 1</text>
    <text x="526" y="195" dominant-baseline="middle">Week 2</text>
    <text x="670" y="195" dominant-baseline="middle">Week 3</text>
    <text x="814" y="195" dominant-baseline="middle">Week 4</text>
    <text x="958" y="195" dominant-baseline="middle">Week 5</text>
  </g>

  <g class="ui cell">
    <text x="146" y="238" dominant-baseline="middle">Email Sent</text>
    <text x="146" y="281" dominant-baseline="middle">Email Delivered</text>
    <text x="146" y="324" dominant-baseline="middle">Email Opened</text>
    <text x="396" y="238" dominant-baseline="middle">0</text>
    <text x="540" y="238" dominant-baseline="middle">1</text>
    <text x="684" y="238" dominant-baseline="middle">0</text>
    <text x="828" y="238" dominant-baseline="middle">0</text>
    <text x="972" y="238" dominant-baseline="middle">0</text>
    <text x="396" y="281" dominant-baseline="middle">0</text>
    <text x="540" y="281" dominant-baseline="middle">0</text>
    <text x="684" y="281" dominant-baseline="middle">0</text>
    <text x="828" y="281" dominant-baseline="middle">0</text>
    <text x="972" y="281" dominant-baseline="middle">0</text>
    <text x="396" y="324" dominant-baseline="middle">0</text>
    <text x="540" y="324" dominant-baseline="middle">0</text>
    <text x="684" y="324" dominant-baseline="middle">0</text>
    <text x="828" y="324" dominant-baseline="middle">0</text>
    <text x="972" y="324" dominant-baseline="middle">0</text>
  </g>

  <rect x="120" y="372" width="960" height="76" fill="#FFFFFF" stroke="#E0E6EB"/>
  <rect x="120" y="372" width="960" height="42" fill="#F5F7F9"/>
  <g stroke="#E0E6EB">
    <line x1="300" y1="372" x2="300" y2="448"/>
    <line x1="444" y1="372" x2="444" y2="448"/>
    <line x1="588" y1="372" x2="588" y2="448"/>
    <line x1="732" y1="372" x2="732" y2="448"/>
    <line x1="876" y1="372" x2="876" y2="448"/>
    <line x1="120" y1="414.5" x2="1080" y2="414.5"/>
  </g>

  <g class="ui head">
    <text x="146" y="393" dominant-baseline="middle">Week No.</text>
    <text x="336" y="393" dominant-baseline="middle">Week 1</text>
    <text x="480" y="393" dominant-baseline="middle">Week 2</text>
    <text x="624" y="393" dominant-baseline="middle">Week 3</text>
    <text x="768" y="393" dominant-baseline="middle">Week 4</text>
    <text x="912" y="393" dominant-baseline="middle">Week 5</text>
  </g>

  <g class="ui cell">
    <text x="146" y="431" dominant-baseline="middle">SMS Sent</text>
    <text x="358" y="431" dominant-baseline="middle">0</text>
    <text x="502" y="431" dominant-baseline="middle">0</text>
    <text x="646" y="431" dominant-baseline="middle">0</text>
    <text x="790" y="431" dominant-baseline="middle">0</text>
    <text x="934" y="431" dominant-baseline="middle">0</text>
  </g>

  <rect x="88" y="498" width="1024" height="168" rx="22" fill="#FFFFFF" stroke="#D9E0E6" stroke-width="2"/>
  <text class="ui title" x="124" y="540" dominant-baseline="middle">Outstanding Invoices</text>
  <path d="M1068 550L1080 538L1092 550" stroke="#CF2F8C" stroke-width="4.5" stroke-linecap="round" stroke-linejoin="round"/>
  <text class="ui big" x="124" y="616" dominant-baseline="middle">205</text>

  <g fill="#CF2F8C">
    <rect x="746" y="566" width="18" height="74"/>
    <rect x="778" y="602" width="18" height="38"/>
    <rect x="810" y="580" width="18" height="60"/>
    <rect x="842" y="590" width="18" height="50"/>
    <rect x="874" y="574" width="18" height="66"/>
    <rect x="742" y="646" width="164" height="8"/>
  </g>
</svg>
