<svg width="1200" height="760" viewBox="0 0 1200 760" fill="none" xmlns="http://www.w3.org/2000/svg">
  <defs>
    <style>
      .ui { font-family: 'Segoe UI', Arial, sans-serif; }
      .title { font-size: 30px; font-weight: 800; fill: #11171d; }
      .head { font-size: 18px; font-weight: 700; fill: #55636d; }
      .cell { font-size: 18px; font-weight: 600; fill: #1f2a33; }
      .big { font-size: 52px; font-weight: 800; fill: #11171d; }
    </style>
  </defs>

  <rect width="1200" height="760" rx="34" fill="#E8EDF3"/>
  <rect x="54" y="44" width="1092" height="672" rx="30" fill="#FCFDFE"/>

  <rect x="88" y="84" width="1024" height="312" rx="22" fill="#FFFFFF" stroke="#D9E0E6" stroke-width="2"/>
  <text class="ui title" x="124" y="126" dominant-baseline="middle">Case Weekly Data</text>
  <path d="M1068 136L1080 124L1092 136" stroke="#CF2F8C" stroke-width="4.5" stroke-linecap="round" stroke-linejoin="round"/>

  <rect x="120" y="176" width="960" height="176" fill="#FFFFFF" stroke="#E0E6EB"/>
  <rect x="120" y="176" width="960" height="42" fill="#F5F7F9"/>
  <g stroke="#E0E6EB">
    <line x1="346" y1="176" x2="346" y2="352"/>
    <line x1="490" y1="176" x2="490" y2="352"/>
    <line x1="634" y1="176" x2="634" y2="352"/>
    <line x1="778" y1="176" x2="778" y2="352"/>
    <line x1="922" y1="176" x2="922" y2="352"/>
    <line x1="120" y1="218.5" x2="1080" y2="218.5"/>
    <line x1="120" y1="261.5" x2="1080" y2="261.5"/>
    <line x1="120" y1="304.5" x2="1080" y2="304.5"/>
  </g>

  <g class="ui head">
    <text x="146" y="197" dominant-baseline="middle">Week No.</text>
    <text x="382" y="197" dominant-baseline="middle">Week 1</text>
    <text x="526" y="197" dominant-baseline="middle">Week 2</text>
    <text x="670" y="197" dominant-baseline="middle">Week 3</text>
    <text x="814" y="197" dominant-baseline="middle">Week 4</text>
    <text x="958" y="197" dominant-baseline="middle">Week 5</text>
  </g>

  <g class="ui cell">
    <text x="146" y="240" dominant-baseline="middle">New Cases</text>
    <text x="146" y="283" dominant-baseline="middle">Closed Cases</text>
    <text x="146" y="326" dominant-baseline="middle">Active Cases</text>
    <text x="396" y="240" dominant-baseline="middle">0</text>
    <text x="540" y="240" dominant-baseline="middle">0</text>
    <text x="684" y="240" dominant-baseline="middle">0</text>
    <text x="828" y="240" dominant-baseline="middle">0</text>
    <text x="972" y="240" dominant-baseline="middle">0</text>
    <text x="396" y="283" dominant-baseline="middle">0</text>
    <text x="540" y="283" dominant-baseline="middle">0</text>
    <text x="684" y="283" dominant-baseline="middle">0</text>
    <text x="828" y="283" dominant-baseline="middle">0</text>
    <text x="972" y="283" dominant-baseline="middle">0</text>
    <text x="396" y="326" dominant-baseline="middle">0</text>
    <text x="540" y="326" dominant-baseline="middle">0</text>
    <text x="684" y="326" dominant-baseline="middle">0</text>
    <text x="828" y="326" dominant-baseline="middle">0</text>
    <text x="972" y="326" dominant-baseline="middle">0</text>
  </g>

  <rect x="88" y="438" width="1024" height="174" rx="22" fill="#FFFFFF" stroke="#D9E0E6" stroke-width="2"/>
  <text class="ui title" x="124" y="480" dominant-baseline="middle">Total amount outstanding</text>
  <path d="M1068 490L1080 478L1092 490" stroke="#CF2F8C" stroke-width="4.5" stroke-linecap="round" stroke-linejoin="round"/>
  <text class="ui big" x="124" y="544" dominant-baseline="middle">&#163;434,223.72</text>

  <g fill="#CF2F8C">
    <rect x="746" y="494" width="18" height="76"/>
    <rect x="778" y="530" width="18" height="40"/>
    <rect x="810" y="506" width="18" height="64"/>
    <rect x="842" y="518" width="18" height="52"/>
    <rect x="874" y="498" width="18" height="72"/>
    <rect x="742" y="576" width="164" height="8"/>
  </g>
</svg>
