<svg width="1200" height="760" viewBox="0 0 1200 760" fill="none" xmlns="http://www.w3.org/2000/svg">
  <rect width="1200" height="760" rx="34" fill="#ECEFF3"/>
  <rect x="54" y="42" width="1092" height="676" rx="26" fill="#FFFFFF"/>
  <rect x="54" y="42" width="1092" height="58" rx="26" fill="#0A0A0A"/>
  <rect x="54" y="74" width="1092" height="644" rx="0" fill="#FFFFFF"/>
  <text x="84" y="79" fill="white" font-family="Manrope, Arial, sans-serif" font-size="22" font-weight="800">Scheme 1. New Case (42)</text>
  <text x="1116" y="79" fill="white" font-family="Manrope, Arial, sans-serif" font-size="26" font-weight="700">×</text>

  <rect x="82" y="120" width="104" height="40" rx="8" fill="#C82C8A"/>
  <rect x="198" y="120" width="140" height="40" rx="8" fill="#C82C8A"/>
  <text x="104" y="146" fill="white" font-family="Manrope, Arial, sans-serif" font-size="18" font-weight="800">Add Stage</text>
  <text x="220" y="146" fill="white" font-family="Manrope, Arial, sans-serif" font-size="18" font-weight="800">Create New Stage</text>

  <rect x="82" y="182" width="1036" height="472" rx="0" fill="white" stroke="#E0E5EA"/>
  <rect x="82" y="182" width="1036" height="38" fill="#F6F7F9"/>

  <g stroke="#E0E5EA">
    <line x1="580" y1="182" x2="580" y2="654"/>
    <line x1="692" y1="182" x2="692" y2="654"/>
    <line x1="800" y1="182" x2="800" y2="654"/>
    <line x1="890" y1="182" x2="890" y2="654"/>
    <line x1="1054" y1="182" x2="1054" y2="654"/>
  </g>

  <g fill="#4C5963" font-family="Manrope, Arial, sans-serif" font-size="15" font-weight="700">
    <text x="124" y="207">Stage</text>
    <text x="621" y="207">Alerts</text>
    <text x="725" y="207">Content</text>
    <text x="828" y="207">Fees</text>
    <text x="945" y="207">Decisions</text>
    <text x="1090" y="207">Edit</text>
  </g>

  <g stroke="#E5E9ED">
    <line x1="82" y1="258" x2="1118" y2="258"/>
    <line x1="82" y1="296" x2="1118" y2="296"/>
    <line x1="82" y1="334" x2="1118" y2="334"/>
    <line x1="82" y1="372" x2="1118" y2="372"/>
    <line x1="82" y1="410" x2="1118" y2="410"/>
    <line x1="82" y1="448" x2="1118" y2="448"/>
    <line x1="82" y1="486" x2="1118" y2="486"/>
    <line x1="82" y1="524" x2="1118" y2="524"/>
    <line x1="82" y1="562" x2="1118" y2="562"/>
    <line x1="82" y1="600" x2="1118" y2="600"/>
    <line x1="82" y1="638" x2="1118" y2="638"/>
  </g>

  <g fill="#222D35" font-family="Manrope, Arial, sans-serif" font-size="15" font-weight="600">
    <text x="104" y="245">New Debt Existing File Check</text>
    <text x="104" y="283">Legal Action on Existing File Check</text>
    <text x="104" y="321">Add Invoice Details to Existing File</text>
    <text x="104" y="359">Check Name/Address/Invoice Details on New File</text>
    <text x="104" y="397">Contact Client Department</text>
    <text x="104" y="435">Issue LBA</text>
    <text x="104" y="473">New Case Review</text>
    <text x="104" y="511">Arrangement Check</text>
    <text x="104" y="549">Send Query to Client</text>
    <text x="104" y="587">New Case Query Review</text>
    <text x="104" y="625">Write Off and Close File</text>
  </g>

  <g fill="#111111" font-family="Manrope, Arial, sans-serif" font-size="14" font-weight="800">
    <rect x="620" y="229" width="46" height="22" rx="11" fill="#0B0B0B"/>
    <rect x="620" y="267" width="46" height="22" rx="11" fill="#0B0B0B"/>
    <rect x="620" y="305" width="46" height="22" rx="11" fill="#0B0B0B"/>
    <rect x="620" y="343" width="46" height="22" rx="11" fill="#0B0B0B"/>
    <rect x="620" y="381" width="46" height="22" rx="11" fill="#0B0B0B"/>
    <rect x="620" y="419" width="74" height="22" rx="11" fill="#0B0B0B"/>
    <rect x="620" y="457" width="46" height="22" rx="11" fill="#0B0B0B"/>
    <rect x="620" y="495" width="46" height="22" rx="11" fill="#0B0B0B"/>
    <rect x="620" y="533" width="46" height="22" rx="11" fill="#0B0B0B"/>
    <rect x="620" y="571" width="46" height="22" rx="11" fill="#0B0B0B"/>
    <rect x="620" y="609" width="46" height="22" rx="11" fill="#0B0B0B"/>
    <text x="639" y="244" fill="white">1</text>
    <text x="639" y="282" fill="white">1</text>
    <text x="639" y="320" fill="white">2</text>
    <text x="639" y="358" fill="white">1</text>
    <text x="639" y="396" fill="white">2</text>
    <text x="641" y="434" fill="white">20 DAYS</text>
    <text x="639" y="472" fill="white">1</text>
    <text x="639" y="510" fill="white">1</text>
    <text x="639" y="548" fill="white">1</text>
    <text x="639" y="586" fill="white">1</text>
    <text x="639" y="624" fill="white">2</text>
  </g>

  <g fill="#0B0B0B" font-family="Manrope, Arial, sans-serif" font-size="13" font-weight="800">
    <rect x="930" y="229" width="96" height="22" rx="11"/>
    <rect x="930" y="267" width="96" height="22" rx="11"/>
    <rect x="930" y="305" width="106" height="22" rx="11"/>
    <rect x="930" y="343" width="96" height="22" rx="11"/>
    <rect x="930" y="457" width="96" height="22" rx="11"/>
    <rect x="930" y="495" width="96" height="22" rx="11"/>
    <rect x="930" y="571" width="106" height="22" rx="11"/>
    <rect x="930" y="609" width="96" height="22" rx="11"/>
    <text x="954" y="244" fill="white">2 DECISION</text>
    <text x="954" y="282" fill="white">2 DECISION</text>
    <text x="950" y="320" fill="white">1 DECISION</text>
    <text x="954" y="358" fill="white">2 DECISION</text>
    <text x="954" y="472" fill="white">2 DECISION</text>
    <text x="954" y="510" fill="white">2 DECISION</text>
    <text x="950" y="586" fill="white">3 DECISION</text>
    <text x="954" y="624" fill="white">1 DECISION</text>
  </g>

  <g fill="#C82C8A" font-family="Manrope, Arial, sans-serif" font-size="20" font-weight="800">
    <text x="830" y="245">+</text>
    <text x="830" y="283">+</text>
    <text x="830" y="321">+</text>
    <text x="830" y="359">+</text>
    <text x="830" y="397">+</text>
    <text x="830" y="435">+</text>
    <text x="830" y="473">+</text>
    <text x="830" y="511">+</text>
    <text x="830" y="549">+</text>
    <text x="830" y="587">+</text>
    <text x="830" y="625">+</text>
    <text x="1088" y="245">✎</text>
    <text x="1088" y="283">✎</text>
    <text x="1088" y="321">✎</text>
    <text x="1088" y="359">✎</text>
    <text x="1088" y="397">✎</text>
    <text x="1088" y="435">✎</text>
    <text x="1088" y="473">✎</text>
    <text x="1088" y="511">✎</text>
    <text x="1088" y="549">✎</text>
    <text x="1088" y="587">✎</text>
    <text x="1088" y="625">✎</text>
  </g>
</svg>
