<svg width="1200" height="760" viewBox="0 0 1200 760" fill="none" xmlns="http://www.w3.org/2000/svg">
  <rect width="1200" height="760" rx="34" fill="#EEF1F4"/>
  <rect x="58" y="48" width="1084" height="664" rx="26" fill="#FFFFFF"/>

  <rect x="92" y="88" width="1016" height="392" rx="18" fill="#FFFFFF" stroke="#E1E6EA" stroke-width="2"/>
  <text x="124" y="138" fill="#11171D" font-family="Manrope, Arial, sans-serif" font-size="34" font-weight="800">Communication Weekly Data</text>
  <path d="M1058 127L1070 115L1082 127" stroke="#C82C8A" stroke-width="5" stroke-linecap="round" stroke-linejoin="round"/>

  <rect x="122" y="184" width="956" height="168" fill="white" stroke="#E1E6EA"/>
  <rect x="122" y="184" width="956" height="46" fill="#F4F5F7"/>
  <g stroke="#E1E6EA">
    <line x1="364" y1="184" x2="364" y2="352"/>
    <line x1="508" y1="184" x2="508" y2="352"/>
    <line x1="652" y1="184" x2="652" y2="352"/>
    <line x1="796" y1="184" x2="796" y2="352"/>
    <line x1="940" y1="184" x2="940" y2="352"/>
    <line x1="122" y1="230" x2="1078" y2="230"/>
    <line x1="122" y1="272" x2="1078" y2="272"/>
    <line x1="122" y1="314" x2="1078" y2="314"/>
  </g>
  <g fill="#4C5963" font-family="Manrope, Arial, sans-serif" font-size="22" font-weight="700">
    <text x="144" y="214">Week No.</text>
    <text x="386" y="214">Week 1</text>
    <text x="530" y="214">Week 2</text>
    <text x="674" y="214">Week 3</text>
    <text x="818" y="214">Week 4</text>
    <text x="962" y="214">Week 5</text>
  </g>
  <g fill="#2A333A" font-family="Manrope, Arial, sans-serif" font-size="22" font-weight="600">
    <text x="144" y="258">Email Sent</text>
    <text x="144" y="300">Email Delivered</text>
    <text x="144" y="342">Email Opened</text>
    <text x="403" y="258">0</text>
    <text x="547" y="258">1</text>
    <text x="691" y="258">0</text>
    <text x="835" y="258">0</text>
    <text x="979" y="258">0</text>
    <text x="403" y="300">0</text>
    <text x="547" y="300">0</text>
    <text x="691" y="300">0</text>
    <text x="835" y="300">0</text>
    <text x="979" y="300">0</text>
    <text x="403" y="342">0</text>
    <text x="547" y="342">0</text>
    <text x="691" y="342">0</text>
    <text x="835" y="342">0</text>
    <text x="979" y="342">0</text>
  </g>

  <rect x="122" y="374" width="956" height="78" fill="white" stroke="#E1E6EA"/>
  <rect x="122" y="374" width="956" height="46" fill="#F4F5F7"/>
  <g stroke="#E1E6EA">
    <line x1="298" y1="374" x2="298" y2="452"/>
    <line x1="442" y1="374" x2="442" y2="452"/>
    <line x1="586" y1="374" x2="586" y2="452"/>
    <line x1="730" y1="374" x2="730" y2="452"/>
    <line x1="874" y1="374" x2="874" y2="452"/>
    <line x1="122" y1="420" x2="1078" y2="420"/>
  </g>
  <g fill="#4C5963" font-family="Manrope, Arial, sans-serif" font-size="22" font-weight="700">
    <text x="144" y="404">Week No.</text>
    <text x="320" y="404">Week 1</text>
    <text x="464" y="404">Week 2</text>
    <text x="608" y="404">Week 3</text>
    <text x="752" y="404">Week 4</text>
    <text x="896" y="404">Week 5</text>
  </g>
  <g fill="#2A333A" font-family="Manrope, Arial, sans-serif" font-size="22" font-weight="600">
    <text x="144" y="444">SMS Sent</text>
    <text x="343" y="444">0</text>
    <text x="487" y="444">0</text>
    <text x="631" y="444">0</text>
    <text x="775" y="444">0</text>
    <text x="919" y="444">0</text>
  </g>

  <rect x="92" y="512" width="1016" height="160" rx="18" fill="#FFFFFF" stroke="#E1E6EA" stroke-width="2"/>
  <text x="124" y="562" fill="#11171D" font-family="Manrope, Arial, sans-serif" font-size="34" font-weight="800">Outstanding Invoices</text>
  <path d="M1058 551L1070 539L1082 551" stroke="#C82C8A" stroke-width="5" stroke-linecap="round" stroke-linejoin="round"/>
  <text x="124" y="644" fill="#11171D" font-family="Manrope, Arial, sans-serif" font-size="68" font-weight="800">205</text>
  <g fill="#C82C8A">
    <rect x="760" y="600" width="16" height="74"/>
    <rect x="790" y="634" width="16" height="40"/>
    <rect x="820" y="616" width="16" height="58"/>
    <rect x="850" y="626" width="16" height="48"/>
    <rect x="880" y="608" width="16" height="66"/>
    <rect x="756" y="676" width="156" height="8"/>
  </g>
</svg>
